<?xml version="1.0" encoding="UTF-8"?>
<svg id="Layer_1" xmlns="http://www.w3.org/2000/svg" version="1.1" viewBox="0 0 2048 2048">
  <!-- Generator: Adobe Illustrator 29.2.1, SVG Export Plug-In . SVG Version: 2.1.0 Build 116)  -->
  <path d="M986.8,930.8l17.2,10.7c-4.3,2.1-8.6,10.7-17.2,10.7s0-4.3,0-10.7v-10.7ZM783.1,930.8c40.8-25.7,87.9-30,133-23.6-10.7,8.6-15,19.3-15,34.3s2.1,17.2,6.4,25.7c-49.3,0-102.9-12.9-124.4-36.5h0ZM1272.1,947.9l19.3,8.6c-6.4,2.1-10.7,10.7-19.3,10.7s2.1-6.4,2.1-10.7,0-6.4-2.1-8.6ZM1072.6,947.9c36.5-27.9,83.6-32.2,130.8-25.7-8.6,8.6-17.2,21.5-17.2,34.3s2.1,17.2,8.6,23.6c-51.5,0-105.1-10.7-122.2-32.2h0ZM457.1,1456.2c229.5,246.6,739.9,476.1,1237.5-42.9l-171.6-152.3,139.4-265.9-193,30,2.1-124.4,240.2-92.2-246.6-19.3-98.7-544.8-323.8,197.3-188.7-216.6-193,551.2-323.9,143.7h332.4l19.3,81.5-195.2,30,227.3,231.6-263.8,193h0Z"/>
</svg>